<svg width="61" height="62" viewBox="0 0 61 62" fill="none" xmlns="http://www.w3.org/2000/svg">
<path d="M60.928 30.948C60.928 47.711 47.339 61.301 30.576 61.301C13.813 61.301 0.223999 47.713 0.223999 30.948C0.223999 14.184 13.812 0.594971 30.576 0.594971C47.339 0.594971 60.928 14.185 60.928 30.948ZM30.576 7.37997C17.559 7.37997 7.007 17.932 7.007 30.949C7.007 43.965 17.558 54.519 30.576 54.519C43.593 54.519 54.145 43.965 54.145 30.949C54.146 17.933 43.593 7.37997 30.576 7.37997ZM24.363 23.895C24.363 19.107 27.434 17.426 30.503 17.426C32.33 17.426 33.894 17.595 35.144 19.143C38.068 22.762 34.805 26.274 31.087 28.133C28.456 29.449 27.213 31.679 27.213 34.784V41.73H34.156V37.636C34.156 31.386 38.176 32.957 41.1 29.048C45.054 23.76 44.199 17.799 38.833 13.552C32.695 8.69097 25.749 11.103 23.813 12.419C22.204 13.512 16.504 17.572 17.6 26.306L24.347 26.32C24.347 26.32 24.361 25.503 24.361 23.895H24.363ZM34.158 51.232V44.106H27.215V51.232H34.158Z" fill="black"/>
</svg>
