<svg width="78" height="78" viewBox="0 0 78 78" fill="none" xmlns="http://www.w3.org/2000/svg">
<path fill-rule="evenodd" clip-rule="evenodd" d="M38.998 0.963013C17.461 0.963013 0 18.425 0 39.965C0 57.196 11.172 71.814 26.671 76.968C28.623 77.329 29.333 76.128 29.333 75.091C29.333 74.167 29.299 71.716 29.282 68.458C18.433 70.817 16.144 63.229 16.144 63.229C14.37 58.724 11.813 57.526 11.813 57.526C8.272 55.108 12.082 55.155 12.082 55.155C15.996 55.432 18.056 59.173 18.056 59.173C21.534 65.133 27.185 63.408 29.406 62.416C29.759 59.891 30.769 58.176 31.882 57.199C23.223 56.215 14.119 52.869 14.119 37.925C14.119 33.666 15.638 30.184 18.132 27.457C17.733 26.475 16.392 22.51 18.515 17.138C18.515 17.138 21.789 16.09 29.241 21.139C32.35 20.27 35.687 19.836 39.004 19.823C42.316 19.837 45.654 20.27 48.767 21.139C56.214 16.09 59.483 17.138 59.483 17.138C61.611 22.51 60.271 26.475 59.871 27.457C62.371 30.184 63.879 33.666 63.879 37.925C63.879 52.904 54.762 56.204 46.074 57.166C47.472 58.371 48.72 60.756 48.72 64.395C48.72 69.606 48.673 73.811 48.673 75.09C48.673 76.135 49.374 77.35 51.354 76.963C66.836 71.798 78 57.191 78 39.965C78 18.425 60.539 0.963013 38.998 0.963013Z" fill="black"/>
</svg>
