<svg width="16" height="16" viewBox="0 0 16 16" fill="none" xmlns="http://www.w3.org/2000/svg">
<path d="M3.33337 7.99996V2.66663M12.6667 13.3333V11.3333M3.33337 13.3333V10.6666M12.6667 8.66663V2.66663M8.00004 4.66663V2.66663M8.00004 13.3333V7.33329" stroke="#456375" stroke-linecap="round"/>
<path d="M3.33333 10.6667C4.06971 10.6667 4.66667 10.0697 4.66667 9.33333C4.66667 8.59695 4.06971 8 3.33333 8C2.59695 8 2 8.59695 2 9.33333C2 10.0697 2.59695 10.6667 3.33333 10.6667Z" stroke="#456375" stroke-linecap="round"/>
<path d="M7.99996 7.33329C8.73634 7.33329 9.33329 6.73634 9.33329 5.99996C9.33329 5.26358 8.73634 4.66663 7.99996 4.66663C7.26358 4.66663 6.66663 5.26358 6.66663 5.99996C6.66663 6.73634 7.26358 7.33329 7.99996 7.33329Z" stroke="#456375" stroke-linecap="round"/>
<path d="M12.6667 11.3333C13.4031 11.3333 14 10.7363 14 9.99996C14 9.26358 13.4031 8.66663 12.6667 8.66663C11.9303 8.66663 11.3334 9.26358 11.3334 9.99996C11.3334 10.7363 11.9303 11.3333 12.6667 11.3333Z" stroke="#456375" stroke-linecap="round"/>
</svg>