<svg width="16" height="16" viewBox="0 0 16 16" fill="none" xmlns="http://www.w3.org/2000/svg">
<g clip-path="url(#clip0_52_149)">
<path d="M7.99996 3.99133L4.63596 11.826L3.9583 9.721L2.5033 12.6183" stroke="black" stroke-width="0.75" stroke-linecap="round" stroke-linejoin="round"/>
<path d="M4.47294 6.43697C5.13163 6.43697 5.66561 5.90299 5.66561 5.2443C5.66561 4.58561 5.13163 4.05164 4.47294 4.05164C3.81425 4.05164 3.28027 4.58561 3.28027 5.2443C3.28027 5.90299 3.81425 6.43697 4.47294 6.43697Z" stroke="black" stroke-width="0.75" stroke-linecap="round" stroke-linejoin="round"/>
<path d="M3.31337 4.08461L3.00837 3.77927M5.93803 6.70927L5.6327 6.40394M4.47337 3.60461V3.17261M4.47337 7.31594V6.88394M6.11303 5.24427H6.54503M2.40137 5.24427H2.83337M5.6327 4.08461L5.93803 3.77927M3.00837 6.70927L3.3137 6.40394M11.7027 3.83461L11.6797 3.83627C11.8777 4.03058 12.014 4.27905 12.0713 4.5505C12.1286 4.82195 12.1045 5.10428 12.002 5.36207C11.8994 5.61986 11.723 5.84162 11.4949 5.99951C11.2668 6.15741 10.9971 6.24442 10.7197 6.24961C10.8849 6.4111 11.0872 6.52948 11.3089 6.59432C11.5306 6.65916 11.7649 6.66847 11.9911 6.62143C12.2172 6.57439 12.4283 6.47244 12.6058 6.32457C12.7833 6.1767 12.9216 5.98745 13.0087 5.77349C13.0958 5.55954 13.1289 5.32745 13.1051 5.09768C13.0813 4.86791 13.0014 4.64751 12.8724 4.45591C12.7433 4.26432 12.5692 4.1074 12.3652 3.99899C12.1612 3.89059 11.9337 3.83435 11.7027 3.83461Z" stroke="black" stroke-width="0.75" stroke-linecap="round" stroke-linejoin="round"/>
<path d="M13.4757 12.5767L12.0417 9.721L11.364 11.826L8 3.99133V15.1353" stroke="black" stroke-width="0.75" stroke-linecap="round" stroke-linejoin="round"/>
<path d="M8.00004 15.1667C11.9581 15.1667 15.1667 11.9581 15.1667 8.00004C15.1667 4.042 11.9581 0.833374 8.00004 0.833374C4.042 0.833374 0.833374 4.042 0.833374 8.00004C0.833374 11.9581 4.042 15.1667 8.00004 15.1667Z" stroke="black" stroke-width="0.75" stroke-linecap="round" stroke-linejoin="round"/>
</g>
<defs>
<clipPath id="clip0_52_149">
<rect width="16" height="16" fill="white"/>
</clipPath>
</defs>
</svg>
