<svg width="16" height="16" viewBox="0 0 16 16" fill="none" xmlns="http://www.w3.org/2000/svg">
<path d="M8.05798 16C5.83598 16 3.94698 15.222 2.39098 13.666C0.834984 12.11 0.0573172 10.2214 0.0579838 8.00002C0.0579838 6.35335 0.528984 4.84168 1.47098 3.46502C2.41365 2.08702 3.75032 1.09602 5.48098 0.492018C5.68498 0.420685 5.86365 0.402018 6.01698 0.436018C6.17032 0.470018 6.29732 0.536351 6.39798 0.635018C6.49865 0.733685 6.56265 0.860351 6.58998 1.01502C6.61665 1.17035 6.59565 1.33335 6.52698 1.50402C6.39765 1.82202 6.30365 2.14568 6.24498 2.47502C6.18632 2.80435 6.15732 3.14602 6.15798 3.50002C6.15798 5.28202 6.77898 6.79435 8.02098 8.03702C9.26365 9.27902 10.776 9.90002 12.558 9.90002C13.0233 9.90002 13.449 9.85068 13.835 9.75202C14.2216 9.65335 14.551 9.57335 14.823 9.51202C14.9683 9.48535 15.1013 9.48869 15.222 9.52202C15.3427 9.55535 15.44 9.61402 15.514 9.69802C15.5907 9.78135 15.6427 9.88402 15.67 10.006C15.6973 10.128 15.6816 10.267 15.623 10.423C15.1463 12.0564 14.212 13.394 12.82 14.436C11.428 15.478 9.84065 15.9994 8.05798 16Z" fill="black"/>
</svg>
